<svg width="390" height="40" viewBox="0 0 390 40" fill="none" xmlns="http://www.w3.org/2000/svg">
<rect width="390" height="40" fill="white"/>
<g clip-path="url(#clip0_2162_6222)">
<path d="M318.5 11.023C316.833 10.874 313 11.3804 311 14.5971C308.5 18.6179 311 27.1065 307.5 28H318.5" stroke="black" stroke-width="1.8" stroke-linejoin="round"/>
<path d="M317.5 11.023C319.167 10.874 323 11.3804 325 14.5971C327.5 18.6179 325 27.1065 328.5 28H317.5" stroke="black" stroke-width="1.8" stroke-linejoin="round"/>
<path d="M315 30C315.505 31.1773 316.658 32 318 32C319.342 32 320.495 31.1773 321 30H315Z" fill="black"/>
<path fill-rule="evenodd" clip-rule="evenodd" d="M319.732 11C319.903 10.7058 320 10.3643 320 10C320 8.89543 319.105 8 318 8C316.895 8 316 8.89543 316 10C316 10.3643 316.097 10.7058 316.268 11H319.732Z" fill="black"/>
</g>
<circle cx="360.5" cy="19.5" r="1.5" fill="black"/>
<circle cx="366" cy="19.5" r="1.5" fill="black"/>
<circle cx="371.5" cy="19.5" r="1.5" fill="black"/>
<path d="M22 13L14.9999 20.0001L22 27.0001" stroke="black" stroke-width="2" stroke-linecap="round" stroke-linejoin="round"/>
<path d="M156.883 16.3984H154.602V21.2969C154.602 22.4609 153.938 23.2266 152.875 23.2266C151.82 23.2266 151.242 22.6016 151.242 21.4375V16.3984H148.961V21.9141C148.961 23.9141 150.188 25.125 152.047 25.125C153.352 25.125 154.195 24.5234 154.633 23.4453H154.68V25H156.883V16.3984ZM158.289 18.9297C158.289 20.1875 159.125 21.0234 160.742 21.3906L162.328 21.75C163.109 21.9375 163.406 22.1719 163.406 22.6172C163.406 23.1797 162.852 23.5312 161.945 23.5312C161 23.5312 160.414 23.125 160.305 22.3984H158.078C158.195 24.0547 159.617 25.1484 161.883 25.1484C164.133 25.1484 165.672 24.0469 165.672 22.375C165.672 21.0938 164.984 20.4297 163.258 20.0391L161.641 19.6875C160.867 19.5078 160.492 19.2188 160.492 18.7891C160.492 18.2344 161.039 17.8672 161.859 17.8672C162.734 17.8672 163.305 18.2969 163.352 18.9766H165.461C165.43 17.3359 164.016 16.25 161.891 16.25C159.711 16.25 158.289 17.3125 158.289 18.9297ZM170.695 17.9531C171.75 17.9531 172.484 18.6875 172.523 19.8125H168.812C168.891 18.7109 169.656 17.9531 170.695 17.9531ZM172.555 22.375C172.336 23.0391 171.656 23.4453 170.797 23.4453C169.594 23.4453 168.789 22.6094 168.789 21.3672V21.2266H174.727V20.5234C174.727 17.9062 173.148 16.25 170.672 16.25C168.148 16.25 166.539 18 166.539 20.7344C166.539 23.4688 168.141 25.1484 170.758 25.1484C172.852 25.1484 174.406 24.0391 174.656 22.375H172.555ZM175.953 25H178.234V20.1875C178.234 18.9844 178.914 18.2656 180.07 18.2656C180.406 18.2656 180.719 18.3203 180.914 18.3984V16.3828C180.75 16.3281 180.516 16.2969 180.25 16.2969C179.234 16.2969 178.492 16.875 178.203 17.9375H178.156V16.3984H175.953V25ZM181.891 25H184.172V20.0938C184.172 18.9531 184.828 18.1719 185.922 18.1719C187 18.1719 187.531 18.8203 187.531 19.9609V25H189.812V19.4844C189.812 17.4766 188.734 16.2734 186.828 16.2734C185.508 16.2734 184.633 16.8516 184.141 17.9375H184.094V16.3984H181.891V25ZM194.617 23.4375C193.789 23.4375 193.25 23.0391 193.25 22.4062C193.25 21.7734 193.758 21.3984 194.711 21.3359L196.516 21.2109V21.8438C196.516 22.7812 195.672 23.4375 194.617 23.4375ZM193.875 25.1016C194.977 25.1016 196.039 24.5703 196.508 23.6719H196.555V25H198.758V19.1016C198.758 17.3828 197.312 16.25 195.102 16.25C192.953 16.25 191.469 17.3828 191.406 19.0234H193.492C193.602 18.3984 194.18 17.9609 195.008 17.9609C195.945 17.9609 196.516 18.4141 196.516 19.2422V19.8125L194.367 19.9453C192.172 20.0781 190.977 20.9609 190.977 22.5234C190.977 24.0625 192.219 25.1016 193.875 25.1016ZM200.297 25H202.578V19.8281C202.578 18.8516 203.203 18.1641 204.102 18.1641C204.984 18.1641 205.516 18.7188 205.516 19.6406V25H207.719V19.7969C207.719 18.8203 208.32 18.1641 209.219 18.1641C210.148 18.1641 210.656 18.7188 210.656 19.7266V25H212.938V19.1562C212.938 17.4219 211.805 16.2734 210.117 16.2734C208.867 16.2734 207.836 16.9531 207.445 18.0312H207.398C207.109 16.9062 206.234 16.2734 205 16.2734C203.852 16.2734 202.914 16.9219 202.547 17.9609H202.5V16.3984H200.297V25ZM218.289 17.9531C219.344 17.9531 220.078 18.6875 220.117 19.8125H216.406C216.484 18.7109 217.25 17.9531 218.289 17.9531ZM220.148 22.375C219.93 23.0391 219.25 23.4453 218.391 23.4453C217.188 23.4453 216.383 22.6094 216.383 21.3672V21.2266H222.32V20.5234C222.32 17.9062 220.742 16.25 218.266 16.25C215.742 16.25 214.133 18 214.133 20.7344C214.133 23.4688 215.734 25.1484 218.352 25.1484C220.445 25.1484 222 24.0391 222.25 22.375H220.148Z" fill="black"/>
<g clip-path="url(#clip1_2162_6222)">
<path d="M232.562 12.4804C232.675 12.1537 233.078 12.0381 233.348 12.255L234.57 13.2393C234.759 13.3908 235.028 13.3861 235.211 13.2282L236.398 12.2018C236.66 11.9756 237.067 12.077 237.192 12.3996L237.758 13.8633C237.845 14.0886 238.081 14.2193 238.319 14.1739L239.86 13.8787C240.2 13.8137 240.501 14.1049 240.448 14.4466L240.207 15.9976C240.17 16.2363 240.309 16.4674 240.537 16.5467L242.02 17.0619C242.346 17.1754 242.462 17.5784 242.245 17.8478L241.261 19.0704C241.109 19.2585 241.114 19.5281 241.272 19.7109L242.298 20.8984C242.524 21.16 242.423 21.5668 242.1 21.6916L240.637 22.2583C240.411 22.3455 240.281 22.5813 240.326 22.8186L240.621 24.3602C240.686 24.6998 240.395 25.0014 240.053 24.9482L238.502 24.7071C238.264 24.67 238.033 24.8088 237.953 25.037L237.438 26.5197C237.325 26.8463 236.922 26.9619 236.652 26.745L235.43 25.7607C235.241 25.6092 234.972 25.6139 234.789 25.7719L233.602 26.7982C233.34 27.0244 232.933 26.923 232.808 26.6005L232.242 25.1367C232.155 24.9114 231.919 24.7807 231.681 24.8262L230.14 25.1213C229.8 25.1863 229.499 24.8951 229.552 24.5534L229.793 23.0024C229.83 22.7637 229.691 22.5326 229.463 22.4533L227.98 21.9381C227.654 21.8246 227.538 21.4216 227.755 21.1522L228.739 19.9296C228.891 19.7415 228.886 19.4719 228.728 19.2891L227.702 18.1016C227.476 17.84 227.577 17.4332 227.9 17.3084L229.363 16.7417C229.589 16.6545 229.719 16.4187 229.674 16.1815L229.379 14.6399C229.314 14.3002 229.605 13.9987 229.947 14.0518L231.498 14.2929C231.736 14.33 231.967 14.1912 232.047 13.963L232.562 12.4804Z" fill="#1FA1FF"/>
<path d="M232 19.5L234 21.5L238 17.5" stroke="white"/>
</g>
<defs>
<clipPath id="clip0_2162_6222">
<rect width="24" height="24" fill="white" transform="translate(306 8)"/>
</clipPath>
<clipPath id="clip1_2162_6222">
<rect x="227" y="11.5" width="16" height="16" fill="white"/>
</clipPath>
</defs>
</svg>
