<svg width="197" height="36" viewBox="0 0 197 36" fill="none" xmlns="http://www.w3.org/2000/svg">
<path d="M3.27637 13.5H5.32031V3.63574H3.26953L0.719727 5.40625V7.23828L3.23535 5.5293H3.27637V13.5ZM8.7793 15.6602L9.69531 11.8047H7.79492L7.28223 15.6602H8.7793ZM11.1377 6.63672H13.0518C13.0518 5.68652 13.7969 5.02344 14.7812 5.02344C15.6699 5.02344 16.2783 5.625 16.2783 6.41797C16.2783 7.10156 15.998 7.57324 14.7471 8.77637L11.2539 12.085V13.5H18.4248V11.8594H13.9541V11.8184L16.0254 9.83594C17.6934 8.24316 18.2881 7.49805 18.2881 6.28809C18.2881 4.64746 16.8936 3.41699 14.7812 3.41699C12.6416 3.41699 11.1377 4.73633 11.1377 6.63672ZM22.0889 9.15918H23.2168C24.4131 9.15918 25.1172 9.69238 25.1104 10.6494C25.1104 11.4834 24.3994 12.0576 23.3672 12.0576C22.2803 12.0576 21.5693 11.5107 21.501 10.7041H19.5322C19.6211 12.5156 21.1387 13.7188 23.3672 13.7188C25.6572 13.7188 27.209 12.5293 27.209 10.7383C27.209 9.38477 26.252 8.5166 24.7891 8.37988V8.33887C25.9512 8.09961 26.8467 7.28613 26.8467 6.02832C26.8467 4.44922 25.4385 3.41699 23.3535 3.41699C21.2891 3.41699 19.8535 4.57227 19.751 6.37695H21.6445C21.7061 5.52246 22.3828 5.00293 23.3535 5.00293C24.3379 5.00293 24.8916 5.51562 24.8916 6.32227C24.8916 7.12891 24.2217 7.68945 23.1895 7.68945H22.0889V9.15918ZM33.2246 13.5H35.1865V11.6885H36.4854V10.041H35.1865V3.63574H32.2744C30.251 6.60938 29.1777 8.33203 28.3164 9.96582V11.6885H33.2246V13.5ZM30.1143 10.041C30.9004 8.57129 31.7959 7.16992 33.2246 5.1123H33.2656V10.0957H30.1143V10.041Z" fill="black"/>
<path d="M3.22852 21.6357V31.5H4.45898V27.9795H6.73535C8.58789 27.9795 9.90723 26.6738 9.90723 24.8008C9.90723 22.9346 8.60156 21.6357 6.74902 21.6357H3.22852ZM4.45898 22.7295H6.42773C7.84277 22.7295 8.64258 23.4951 8.64258 24.8008C8.64258 26.1133 7.83594 26.8857 6.42773 26.8857H4.45898V22.7295ZM13.7422 31.623C15.7041 31.623 17.0303 30.208 17.0303 27.9453C17.0303 25.6758 15.7041 24.2676 13.7422 24.2676C11.7734 24.2676 10.4473 25.6758 10.4473 27.9453C10.4473 30.208 11.7734 31.623 13.7422 31.623ZM13.7422 30.5771C12.4844 30.5771 11.6572 29.6201 11.6572 27.9453C11.6572 26.2705 12.4844 25.3135 13.7422 25.3135C15 25.3135 15.8203 26.2705 15.8203 27.9453C15.8203 29.6201 15 30.5771 13.7422 30.5771ZM18.1104 26.3525C18.1104 27.3779 18.7598 28 20.0996 28.3213L21.2275 28.5947C22.041 28.793 22.3213 29.0869 22.3213 29.5996C22.3213 30.2422 21.7266 30.6523 20.7627 30.6523C19.7988 30.6523 19.252 30.2627 19.1084 29.4492H17.9189C18.0557 30.7822 19.0947 31.623 20.7627 31.623C22.3486 31.623 23.5176 30.748 23.5176 29.5107C23.5176 28.4922 22.998 27.9316 21.5625 27.583L20.4346 27.3096C19.6416 27.1182 19.2793 26.7832 19.2793 26.291C19.2793 25.6689 19.8535 25.2383 20.7217 25.2383C21.5967 25.2383 22.1436 25.6963 22.2324 26.4414H23.3672C23.3193 25.1836 22.2803 24.2676 20.7217 24.2676C19.1836 24.2676 18.1104 25.1357 18.1104 26.3525ZM25.1377 22.6748V24.3906H24.0781V25.3682H25.1377V29.6543C25.1377 31.0215 25.6436 31.5547 26.9492 31.5547C27.2295 31.5547 27.5576 31.5342 27.7012 31.5V30.502C27.6191 30.5156 27.3457 30.5361 27.209 30.5361C26.6006 30.5361 26.3271 30.2422 26.3271 29.5928V25.3682H27.708V24.3906H26.3271V22.6748H25.1377ZM28.8564 26.3525C28.8564 27.3779 29.5059 28 30.8457 28.3213L31.9736 28.5947C32.7871 28.793 33.0674 29.0869 33.0674 29.5996C33.0674 30.2422 32.4727 30.6523 31.5088 30.6523C30.5449 30.6523 29.998 30.2627 29.8545 29.4492H28.665C28.8018 30.7822 29.8408 31.623 31.5088 31.623C33.0947 31.623 34.2637 30.748 34.2637 29.5107C34.2637 28.4922 33.7441 27.9316 32.3086 27.583L31.1807 27.3096C30.3877 27.1182 30.0254 26.7832 30.0254 26.291C30.0254 25.6689 30.5996 25.2383 31.4678 25.2383C32.3428 25.2383 32.8896 25.6963 32.9785 26.4414H34.1133C34.0654 25.1836 33.0264 24.2676 31.4678 24.2676C29.9297 24.2676 28.8564 25.1357 28.8564 26.3525Z" fill="black"/>
<path d="M74.2207 13.7188C76.4834 13.7188 78.0352 12.3037 78.0352 10.2188C78.0352 8.33887 76.6885 6.98535 74.8086 6.98535C73.8105 6.98535 72.9971 7.38867 72.5869 8.05176H72.5459L72.7852 5.27637H77.4404V3.63574H71.1445L70.6934 9.42578H72.4912C72.8262 8.83105 73.4414 8.46191 74.2344 8.46191C75.3145 8.46191 76.0664 9.20703 76.0664 10.2666C76.0664 11.3398 75.3145 12.085 74.2275 12.085C73.2773 12.085 72.5459 11.5244 72.4297 10.6699H70.5225C70.5771 12.4609 72.1084 13.7188 74.2207 13.7188ZM80.5371 15.6602L81.4531 11.8047H79.5527L79.04 15.6602H80.5371ZM86.7852 13.7188C88.9863 13.7188 90.5859 12.2627 90.5859 10.2188C90.5859 8.36621 89.2803 7.00586 87.373 7.00586C86.04 7.00586 85.0693 7.67578 84.6865 8.5918H84.6455C84.6387 6.43164 85.3496 5.04395 86.7852 5.04395C87.5986 5.04395 88.1865 5.4541 88.4189 6.1582H90.4561C90.1826 4.53125 88.7061 3.41016 86.792 3.41016C84.2285 3.41016 82.6699 5.37891 82.6699 8.64648C82.6699 12.0508 84.4268 13.7188 86.7852 13.7188ZM86.7578 12.0781C85.7461 12.0781 84.9531 11.2852 84.9531 10.2666C84.9531 9.26172 85.7324 8.53027 86.7783 8.53027C87.8105 8.53027 88.5762 9.26855 88.5762 10.3076C88.5693 11.2988 87.7695 12.0781 86.7578 12.0781ZM92.3291 13.5H94.4961L98.6113 5.29688V3.63574H91.5566V5.27637H96.5742V5.31738L92.3291 13.5ZM103.697 13.7188C106.049 13.7188 107.696 12.543 107.696 10.834C107.696 9.53516 106.746 8.57812 105.399 8.31152V8.27051C106.555 7.9834 107.334 7.13574 107.334 6.07617C107.334 4.53125 105.837 3.41699 103.697 3.41699C101.558 3.41699 100.054 4.53809 100.054 6.06934C100.054 7.14258 100.84 7.99023 102.002 8.27051V8.31152C100.655 8.57129 99.6982 9.52832 99.6982 10.8271C99.6982 12.5361 101.339 13.7188 103.697 13.7188ZM103.697 12.2148C102.61 12.2148 101.852 11.5723 101.852 10.6768C101.852 9.79492 102.61 9.15234 103.697 9.15234C104.784 9.15234 105.536 9.78809 105.536 10.6768C105.536 11.5723 104.784 12.2148 103.697 12.2148ZM103.697 7.64844C102.761 7.64844 102.098 7.08789 102.098 6.28125C102.098 5.46777 102.761 4.90723 103.697 4.90723C104.627 4.90723 105.297 5.46777 105.297 6.28125C105.297 7.08789 104.627 7.64844 103.697 7.64844Z" fill="black"/>
<path d="M63.3105 31.5V27.2275H67.6787V26.1338H63.3105V22.7432H68.0684V21.6357H62.0801V31.5H63.3105ZM71.9648 31.623C73.9268 31.623 75.2529 30.208 75.2529 27.9453C75.2529 25.6758 73.9268 24.2676 71.9648 24.2676C69.9961 24.2676 68.6699 25.6758 68.6699 27.9453C68.6699 30.208 69.9961 31.623 71.9648 31.623ZM71.9648 30.5771C70.707 30.5771 69.8799 29.6201 69.8799 27.9453C69.8799 26.2705 70.707 25.3135 71.9648 25.3135C73.2227 25.3135 74.043 26.2705 74.043 27.9453C74.043 29.6201 73.2227 30.5771 71.9648 30.5771ZM76.5176 31.5H77.707V21.6357H76.5176V31.5ZM79.375 31.5H80.5645V21.6357H79.375V31.5ZM85.1172 31.623C87.0791 31.623 88.4053 30.208 88.4053 27.9453C88.4053 25.6758 87.0791 24.2676 85.1172 24.2676C83.1484 24.2676 81.8223 25.6758 81.8223 27.9453C81.8223 30.208 83.1484 31.623 85.1172 31.623ZM85.1172 30.5771C83.8594 30.5771 83.0322 29.6201 83.0322 27.9453C83.0322 26.2705 83.8594 25.3135 85.1172 25.3135C86.375 25.3135 87.1953 26.2705 87.1953 27.9453C87.1953 29.6201 86.375 30.5771 85.1172 30.5771ZM98.6523 24.3906H97.4766L96.0547 30.1738H96.0273L94.4141 24.3906H93.2656L91.6592 30.1738H91.6318L90.21 24.3906H89.0273L91.0166 31.5H92.2266L93.8262 25.9971H93.8535L95.46 31.5H96.6699L98.6523 24.3906ZM102.48 25.2998C103.602 25.2998 104.347 26.1475 104.374 27.3369H100.512C100.587 26.1543 101.366 25.2998 102.48 25.2998ZM104.347 29.4629C104.148 30.1328 103.485 30.5908 102.583 30.5908C101.305 30.5908 100.505 29.6953 100.505 28.335V28.2666H105.604V27.8154C105.604 25.6621 104.422 24.2676 102.501 24.2676C100.539 24.2676 99.2812 25.7646 99.2812 27.9727C99.2812 30.208 100.519 31.623 102.556 31.623C104.107 31.623 105.311 30.707 105.516 29.4629H104.347ZM106.808 31.5H107.997V27.0703C107.997 26.0654 108.599 25.4023 109.521 25.4023C109.809 25.4023 110.062 25.4365 110.157 25.4707V24.3154C110.062 24.3018 109.884 24.2676 109.679 24.2676C108.845 24.2676 108.188 24.7666 107.956 25.5527H107.929V24.3906H106.808V31.5ZM111.005 26.3525C111.005 27.3779 111.654 28 112.994 28.3213L114.122 28.5947C114.936 28.793 115.216 29.0869 115.216 29.5996C115.216 30.2422 114.621 30.6523 113.657 30.6523C112.693 30.6523 112.146 30.2627 112.003 29.4492H110.813C110.95 30.7822 111.989 31.623 113.657 31.623C115.243 31.623 116.412 30.748 116.412 29.5107C116.412 28.4922 115.893 27.9316 114.457 27.583L113.329 27.3096C112.536 27.1182 112.174 26.7832 112.174 26.291C112.174 25.6689 112.748 25.2383 113.616 25.2383C114.491 25.2383 115.038 25.6963 115.127 26.4414H116.262C116.214 25.1836 115.175 24.2676 113.616 24.2676C112.078 24.2676 111.005 25.1357 111.005 26.3525Z" fill="black"/>
<path d="M156.121 13.7188C158.685 13.7188 160.236 11.75 160.236 8.48242C160.236 4.87988 158.295 3.41016 156.121 3.41016C153.92 3.41016 152.32 4.86621 152.32 6.91016C152.32 8.83105 153.763 10.1299 155.595 10.1299C156.887 10.1299 157.864 9.4873 158.22 8.53027H158.261C158.274 10.6494 157.611 12.085 156.128 12.085C155.301 12.085 154.692 11.709 154.474 11.0049H152.437C152.696 12.6045 154.187 13.7188 156.121 13.7188ZM156.128 8.59863C155.096 8.59863 154.33 7.86035 154.33 6.82812C154.33 5.83008 155.13 5.05762 156.148 5.05762C157.16 5.05762 157.96 5.84375 157.96 6.8623C157.96 7.87402 157.167 8.59863 156.128 8.59863ZM162.595 15.6602L163.511 11.8047H161.61L161.098 15.6602H162.595ZM166.812 13.5H168.856V3.63574H166.806L164.256 5.40625V7.23828L166.771 5.5293H166.812V13.5ZM174.968 13.7188C177.47 13.7188 178.987 11.7295 178.987 8.54395C178.987 5.3584 177.456 3.41016 174.968 3.41016C172.479 3.41016 170.941 5.36523 170.941 8.55078C170.941 11.7432 172.466 13.7188 174.968 13.7188ZM174.968 12.0645C173.751 12.0645 173.04 10.8135 173.04 8.55078C173.04 6.30859 173.765 5.06445 174.968 5.06445C176.178 5.06445 176.889 6.30176 176.889 8.55078C176.889 10.8135 176.185 12.0645 174.968 12.0645ZM182.658 13.5H184.702V3.63574H182.651L180.102 5.40625V7.23828L182.617 5.5293H182.658V13.5Z" fill="black"/>
<path d="M143.352 31.5V27.2275H147.72V26.1338H143.352V22.7432H148.109V21.6357H142.121V31.5H143.352ZM152.006 31.623C153.968 31.623 155.294 30.208 155.294 27.9453C155.294 25.6758 153.968 24.2676 152.006 24.2676C150.037 24.2676 148.711 25.6758 148.711 27.9453C148.711 30.208 150.037 31.623 152.006 31.623ZM152.006 30.5771C150.748 30.5771 149.921 29.6201 149.921 27.9453C149.921 26.2705 150.748 25.3135 152.006 25.3135C153.264 25.3135 154.084 26.2705 154.084 27.9453C154.084 29.6201 153.264 30.5771 152.006 30.5771ZM156.559 31.5H157.748V21.6357H156.559V31.5ZM159.416 31.5H160.605V21.6357H159.416V31.5ZM165.158 31.623C167.12 31.623 168.446 30.208 168.446 27.9453C168.446 25.6758 167.12 24.2676 165.158 24.2676C163.189 24.2676 161.863 25.6758 161.863 27.9453C161.863 30.208 163.189 31.623 165.158 31.623ZM165.158 30.5771C163.9 30.5771 163.073 29.6201 163.073 27.9453C163.073 26.2705 163.9 25.3135 165.158 25.3135C166.416 25.3135 167.236 26.2705 167.236 27.9453C167.236 29.6201 166.416 30.5771 165.158 30.5771ZM178.693 24.3906H177.518L176.096 30.1738H176.068L174.455 24.3906H173.307L171.7 30.1738H171.673L170.251 24.3906H169.068L171.058 31.5H172.268L173.867 25.9971H173.895L175.501 31.5H176.711L178.693 24.3906ZM179.732 31.5H180.922V24.3906H179.732V31.5ZM180.327 23.126C180.744 23.126 181.072 22.791 181.072 22.3809C181.072 21.9639 180.744 21.6357 180.327 21.6357C179.917 21.6357 179.582 21.9639 179.582 22.3809C179.582 22.791 179.917 23.126 180.327 23.126ZM182.528 31.5H183.718V27.3164C183.718 26.1133 184.449 25.3203 185.57 25.3203C186.664 25.3203 187.204 25.9492 187.204 27.0977V31.5H188.394V26.8857C188.394 25.2725 187.491 24.2676 185.933 24.2676C184.832 24.2676 184.073 24.7598 183.677 25.5254H183.649V24.3906H182.528V31.5ZM192.803 30.5088C191.579 30.5088 190.779 29.5107 190.779 27.918C190.779 26.3252 191.579 25.3135 192.803 25.3135C194.04 25.3135 194.867 26.3525 194.867 27.918C194.867 29.4834 194.04 30.5088 192.803 30.5088ZM192.844 34.1797C194.806 34.1797 196.057 33.0518 196.057 31.3564V24.3906H194.922V25.5869H194.901C194.43 24.7598 193.596 24.2676 192.591 24.2676C190.752 24.2676 189.562 25.6895 189.562 27.918C189.562 30.126 190.752 31.5547 192.563 31.5547C193.562 31.5547 194.402 31.0488 194.84 30.2764H194.867V31.3975C194.867 32.457 194.122 33.168 192.892 33.168C192.003 33.168 191.299 32.7373 191.066 32.0879H189.843C190.041 33.2979 191.278 34.1797 192.844 34.1797Z" fill="black"/>
</svg>
